<?xml version="1.0" standalone="no"?>
<!DOCTYPE svg PUBLIC "-//W3C//DTD SVG 20010904//EN"
 "http://www.w3.org/TR/2001/REC-SVG-20010904/DTD/svg10.dtd">
<svg version="1.0" xmlns="http://www.w3.org/2000/svg"
 width="1280.000000pt" height="1280.000000pt" viewBox="0 0 1280.000000 1280.000000"
 preserveAspectRatio="xMidYMid meet">
<metadata>
Created by potrace 1.14, written by Peter Selinger 2001-2017
</metadata>
<g transform="translate(0.000000,1280.000000) scale(0.100000,-0.100000)"
fill="#000000" stroke="none">
<path d="M3130 11778 c-235 -66 -382 -214 -435 -438 -20 -81 -16 -9858 3
-9910 66 -177 163 -291 303 -358 46 -22 111 -45 144 -51 82 -15 6461 -16 6520
0 101 26 207 83 274 148 86 84 125 150 170 291 2 8 6 2226 7 4929 2 4719 1
4916 -16 4977 -50 172 -180 320 -340 382 -30 12 -76 26 -102 32 -65 14 -6478
12 -6528 -2z"/>
</g>
</svg>
